<?xml version="1.0" encoding="UTF-8"?>
<svg id="Layer_2" data-name="Layer 2" xmlns="http://www.w3.org/2000/svg" viewBox="0 0 20.68 24">
  <defs>
    <style>
      .cls-1 {
        fill: #ff4646;
        stroke-width: 0px;
      }
    </style>
  </defs>
  <g id="Layer_1-2" data-name="Layer 1">
    <path class="cls-1" d="M16.63,14.82l-.82-.47,2.2-.59-.36-1.36-3.56.95-1.68-.97c.02-.12.04-.25.04-.39s-.01-.26-.04-.39l1.68-.97,3.56.95.36-1.36-2.2-.59.82-.47,3.53-.21.52-2.93-2.8-1.02-1.95,2.95-.82.47.59-2.2-1.36-.36-.95,3.56-1.68.97c-.19-.17-.42-.3-.67-.39v-1.94l2.61-2.61-.99-.99-1.61,1.61v-.95l1.57-3.15-2.28-1.99-2.28,1.99,1.57,3.15v.95l-1.61-1.61-.99.99,2.61,2.61v1.94c-.25.09-.47.22-.67.39l-1.68-.97-.95-3.56-1.36.36.59,2.2-.82-.47-1.95-2.95-2.8,1.02.52,2.93,3.53.21.82.47-2.2.59.36,1.36,3.56-.95,1.68.97c-.02.12-.04.25-.04.39s.01.26.04.39l-1.68.97-3.56-.95-.36,1.36,2.2.59-.82.47-3.53.21-.52,2.93,2.8,1.02,1.95-2.95.82-.47-.59,2.2,1.36.36.95-3.56,1.68-.97c.19.17.42.3.67.39v1.94l-2.61,2.61.99.99,1.61-1.61v.95l-1.57,3.15,2.28,1.99,2.28-1.99-1.57-3.15v-.95l1.61,1.61.99-.99-2.61-2.61v-1.94c.25-.09.47-.22.67-.39l1.68.97.95,3.56,1.36-.36-.59-2.2.82.47,1.95,2.95,2.8-1.02-.52-2.93-3.53-.21Z"/>
  </g>
</svg>